<svg width="18" height="18" viewBox="0 0 18 18" fill="none" xmlns="http://www.w3.org/2000/svg">
<path d="M2.31344 9.35355C2.11818 9.15829 2.11818 8.84171 2.31344 8.64645L5.49542 5.46447C5.69068 5.2692 6.00726 5.2692 6.20253 5.46447C6.39779 5.65973 6.39779 5.97631 6.20253 6.17157L3.3741 9L6.20253 11.8284C6.39779 12.0237 6.39779 12.3403 6.20253 12.5355C6.00726 12.7308 5.69068 12.7308 5.49542 12.5355L2.31344 9.35355ZM16.0003 8.5C16.2765 8.5 16.5003 8.72386 16.5003 9C16.5003 9.27614 16.2765 9.5 16.0003 9.5L16.0003 8.5ZM2.66699 8.5L16.0003 8.5L16.0003 9.5L2.66699 9.5L2.66699 8.5Z" fill="#8F9BB3"/>
</svg>
