<svg width="20" height="20" viewBox="0 0 20 20" fill="none" xmlns="http://www.w3.org/2000/svg">
<path fill-rule="evenodd" clip-rule="evenodd" d="M9.98687 10.3214C7.03819 10.3214 4.64008 8.0069 4.64008 5.1615C4.64008 2.31517 7.03819 0 9.98687 0C12.9362 0 15.3337 2.31517 15.3337 5.1615C15.3337 8.0069 12.9362 10.3214 9.98687 10.3214ZM9.98774 3.02513C11.2085 3.02513 12.2016 3.98338 12.2016 5.1618C12.2016 6.33931 11.2085 7.29817 9.98774 7.29817C8.7679 7.29817 7.77391 6.33931 7.77391 5.1618C7.77391 3.98338 8.7679 3.02513 9.98774 3.02513ZM15.1526 17.4191L12.1636 14.5335C13.2519 14.2942 14.3016 13.8785 15.2684 13.2924C16 12.8471 16.2205 11.9136 15.7595 11.2073C15.2988 10.4995 14.3323 10.2864 13.5994 10.7317C11.4092 12.0612 8.58946 12.0609 6.40058 10.7317C5.66765 10.2864 4.70086 10.4995 4.24114 11.2073C3.78014 11.9142 3.99992 12.8471 4.73157 13.2924C5.69836 13.8779 6.74801 14.2942 7.83637 14.5335L4.84706 17.4191C4.23602 18.0095 4.23602 18.9668 4.8477 19.5573C5.15386 19.8522 5.5544 19.9998 5.95494 19.9998C6.35611 19.9998 6.75729 19.8522 7.06345 19.5573L9.99966 16.7218L12.9384 19.5573C13.5495 20.1477 14.5409 20.1477 15.1526 19.5573C15.7649 18.9668 15.7649 18.0089 15.1526 17.4191Z" fill="currentColor"/>
</svg>
