<svg width="20" height="20" viewBox="0 0 20 20" fill="none" xmlns="http://www.w3.org/2000/svg">
<path fill-rule="evenodd" clip-rule="evenodd" d="M14.0645 17.4068C15.1138 17.8691 15.5073 16.9004 15.5073 16.9004L18.2836 2.85437C18.2617 1.9077 16.9938 2.48007 16.9938 2.48007L1.45132 8.62251C1.45132 8.62251 0.708052 8.88668 0.773629 9.34898C0.839206 9.81136 1.42946 10.0315 1.42946 10.0315L5.34241 11.3524C5.34241 11.3524 6.5228 15.2492 6.76331 15.9978C6.9819 16.7243 7.17863 16.7463 7.17863 16.7463C7.39722 16.8344 7.59395 16.6803 7.59395 16.6803L10.1297 14.3686L14.0645 17.4068ZM15.4542 5.34213C15.4542 5.34213 16.0007 5.01187 15.9788 5.34213C15.9788 5.34213 16.0663 5.3861 15.7821 5.69437C15.5198 5.95854 9.33337 11.5505 8.50267 12.2991C8.43709 12.3432 8.39337 12.4092 8.39337 12.4973L8.15292 14.5667C8.10921 14.7869 7.82504 14.8089 7.7594 14.6108L6.73203 11.2203C6.68831 11.0882 6.73203 10.9341 6.86318 10.846L15.4542 5.34213Z" fill="currentColor"/>
</svg>
