<svg width="20" height="20" viewBox="0 0 20 20" fill="none" xmlns="http://www.w3.org/2000/svg">
<path fill-rule="evenodd" clip-rule="evenodd" d="M19.5294 5.76334C19.6776 5.33276 19.5294 5.01959 18.8727 5.01959H16.691C16.1403 5.01959 15.8861 5.29359 15.7379 5.58723C15.7379 5.58723 14.6152 8.09255 13.0478 9.71707C12.5394 10.1868 12.3064 10.3434 12.0311 10.3434C11.8828 10.3434 11.6922 10.1868 11.6922 9.75624V5.74376C11.6922 5.23488 11.5228 5 11.0567 5H7.62535C7.28644 5 7.07465 5.23488 7.07465 5.46976C7.07465 5.95911 7.85834 6.07652 7.94306 7.44662V10.4217C7.94306 11.0676 7.816 11.1851 7.54062 11.1851C6.79927 11.1851 4.99886 8.66014 3.9186 5.78293C3.70675 5.21529 3.49496 5 2.94426 5H0.741344C0.105913 5 0 5.27406 0 5.56764C0 6.09611 0.741345 8.75802 3.45256 12.2812C5.25304 14.6886 7.816 15.9804 10.1248 15.9804C11.5228 15.9804 11.6922 15.6868 11.6922 15.1975V13.3773C11.6922 12.79 11.8193 12.6922 12.2641 12.6922C12.5818 12.6922 13.1537 12.8487 14.4458 14.0036C15.9285 15.3737 16.1826 16 17.0087 16H19.1904C19.8259 16 20.1224 15.7064 19.953 15.1388C19.7623 14.5712 19.0422 13.7491 18.1102 12.7704C17.6018 12.2225 16.8393 11.6157 16.6063 11.3221C16.2886 10.9306 16.3733 10.7741 16.6063 10.4217C16.5851 10.4217 19.254 6.93774 19.5294 5.76334Z" fill="currentColor"/>
</svg>
