<svg width="20" height="20" viewBox="0 0 20 20" fill="none" xmlns="http://www.w3.org/2000/svg">
<g clip-path="url(#clip0_3359_3076)">
<path fill-rule="evenodd" clip-rule="evenodd" d="M11.9286 11.9286C10.3571 13.55 10.25 15.5714 10.1071 20C14.2357 20 17.0857 19.9857 18.5571 18.5571C19.9857 17.0857 20 14.1 20 10.1071C15.5714 10.25 13.55 10.3571 11.9286 11.9286ZM9.89286 20C5.76429 20 2.91429 19.9857 1.44286 18.5571C0.0142857 17.0857 0 14.1 0 10.1071C4.42857 10.25 6.45 10.3571 8.07143 11.9286C9.64286 13.55 9.75 15.5714 9.89286 20ZM8.07143 8.07143C6.45 9.64286 4.42857 9.75 0 9.89286C0 5.9 0.0142857 2.91429 1.44286 1.44286C2.91429 0.0142857 5.77143 0 9.89286 0C9.75 4.42857 9.64286 6.45 8.07143 8.07143ZM10.1071 0C10.2429 4.42857 10.3571 6.45 11.9286 8.07143C13.55 9.64286 15.5714 9.75 20 9.89286C20 5.9 19.9857 2.91429 18.5571 1.44286C17.0857 0.0142857 14.2357 0 10.1071 0Z" fill="currentColor"/>
</g>
<defs>
<clipPath id="clip0_3359_3076">
<rect width="20" height="20" fill="white"/>
</clipPath>
</defs>
</svg>
